<svg width="36" height="24" viewBox="0 0 36 24" fill="none" xmlns="http://www.w3.org/2000/svg">
<rect x="0.5" y="0.5" width="35" height="23" rx="3.5" fill="#F7F7FA"/>
<path fill-rule="evenodd" clip-rule="evenodd" d="M12.1253 15.7582H10.0049L8.41495 9.69237C8.33949 9.41334 8.17925 9.16667 7.94354 9.0504C7.35531 8.75823 6.70712 8.5257 6 8.40843V8.1749H9.41567C9.88708 8.1749 10.2406 8.5257 10.2996 8.93313L11.1245 13.3086L13.2438 8.1749H15.3052L12.1253 15.7582ZM16.4838 15.7582H14.4813L16.1302 8.1749H18.1327L16.4838 15.7582ZM20.7234 10.2757C20.7823 9.86728 21.1359 9.63374 21.5483 9.63374C22.1965 9.57511 22.9026 9.69238 23.4919 9.98354L23.8454 8.35081C23.2562 8.11727 22.608 8 22.0198 8C20.0762 8 18.662 9.05041 18.662 10.5082C18.662 11.6173 19.6637 12.1996 20.3708 12.5504C21.1359 12.9002 21.4305 13.1338 21.3716 13.4835C21.3716 14.0082 20.7823 14.2418 20.1941 14.2418C19.4869 14.2418 18.7798 14.0669 18.1327 13.7747L17.7791 15.4085C18.4862 15.6996 19.2512 15.8169 19.9584 15.8169C22.1376 15.8745 23.4919 14.8251 23.4919 13.25C23.4919 11.2665 20.7234 11.1502 20.7234 10.2757ZM30.5 15.7582L28.91 8.1749H27.2022C26.8486 8.1749 26.4951 8.40843 26.3772 8.75823L23.4329 15.7582H25.4943L25.9058 14.6502H28.4386L28.6743 15.7582H30.5ZM27.4968 10.2171L28.085 13.0751H26.4361L27.4968 10.2171Z" fill="#172B85"/>
<rect x="0.5" y="0.5" width="35" height="23" rx="3.5" stroke="#E1E1EA"/>
</svg>
